Coordinates
version=1
nRows=20
nColumns=30
inDegrees=yes

Units are S.I. units (second, meters, Newtons, ...)
Angles are in degrees.

endheader
time	floatyaw	floatroll	floatpitch	floatx	floaty	floatz	pro_sup_l	deviation_l	flexion_l	cmc_flexion_l	cmc_abduction_l	mp_flexion_l	ip_flexion_l	2mcp_flexion_l	2mcp_abduction_l	2pm_flexion_l	2md_flexion_l	3mcp_flexion_l	3mcp_abduction_l	3pm_flexion_l	3md_flexion_l	4mcp_flexion_l	4mcp_abduction_l	4pm_flexion_l	4md_flexion_l	5mcp_flexion_l	5mcp_abduction_l	5pm_flexion_l	5md_flexion_l
-0.495000	-1.089067	-4.156866	93.821839	-0.009179	-0.264405	-0.001518	89.423961	0.356575	-1.748802	23.946917	3.704539	-17.687201	-28.136671	20.286379	6.052219	30.609254	20.423696	9.788528	4.470294	33.713614	21.669568	-1.069052	-3.888639	50.527991	32.745121	-20.725708	-8.463883	60.393809	49.462092
-0.485000	-1.089067	-4.156866	93.821839	-0.008907	-0.263972	-0.001057	89.440467	0.335233	-1.601733	23.577099	3.814840	-17.482082	-27.520375	20.574953	6.099884	30.351314	20.417764	9.950649	4.514807	33.569422	21.698715	-1.055020	-3.897375	50.572699	32.734095	-20.536457	-8.590851	60.675425	49.165713
-0.475000	-1.089067	-4.156866	93.821839	-0.008488	-0.263422	-0.000433	89.409438	0.293941	-1.412705	23.112352	4.061409	-17.213199	-26.749568	20.860785	6.177758	30.102357	20.474415	10.137629	4.591063	33.416300	21.783177	-1.034621	-3.925870	50.641274	32.724217	-20.304900	-8.791449	60.896652	48.805205
-0.465000	-1.089067	-4.156866	93.821839	-0.007862	-0.262709	0.000448	89.302996	0.225656	-1.174057	22.562296	4.519425	-16.913954	-25.883807	21.162462	6.281496	29.876953	20.587634	10.337695	4.692914	33.292045	21.941719	-0.963310	-3.980110	50.711278	32.686381	-19.921478	-9.043288	60.914077	48.339960
-0.455000	-1.089067	-4.156866	93.821839	-0.006976	-0.261778	0.001697	89.096005	0.134768	-0.879229	21.924136	5.235446	-16.628873	-24.990030	21.555144	6.392537	29.629900	20.711941	10.570952	4.806165	33.192460	22.170174	-0.770913	-4.054093	50.719205	32.587374	-19.240011	-9.303748	60.559034	47.710296
-0.445000	-1.089067	-4.156866	93.821839	-0.005792	-0.260592	0.003402	88.771065	0.043805	-0.527115	21.177684	6.206543	-16.398545	-24.121659	22.152022	6.484872	29.267278	20.772353	10.898181	4.913991	33.059945	22.436030	-0.381402	-4.128127	50.576955	32.406133	-18.124858	-9.524610	59.683463	46.854291
-0.435000	-1.089067	-4.156866	93.821839	-0.004282	-0.259147	0.005594	88.323619	-0.003323	-0.124213	20.292302	7.372505	-16.245475	-23.305567	23.060019	6.537574	28.689697	20.690828	11.405527	5.005145	32.805473	22.686388	0.256235	-4.175878	50.211994	32.148858	-16.504652	-9.666625	58.219468	45.738726
-0.425000	-1.089067	-4.156866	93.821839	-0.002417	-0.257477	0.008228	87.766130	0.054968	0.316751	19.242781	8.625386	-16.167229	-22.541628	24.329686	6.546512	27.844597	20.417320	12.168355	5.080282	32.353622	22.867793	1.140812	-4.177024	49.609923	31.853886	-14.408347	-9.708615	56.226918	44.388340
-0.415000	-1.089067	-4.156866	93.821839	-0.000168	-0.255636	0.011199	87.128605	0.285025	0.780599	18.023285	9.837191	-16.139246	-21.811933	25.924542	6.528406	26.758379	19.949685	13.213598	5.151587	31.683265	22.947919	2.213685	-4.127407	48.829993	31.580060	-11.963376	-9.650102	53.894568	42.889657
-0.405000	-1.089067	-4.156866	93.821839	0.002496	-0.253686	0.014389	86.453899	0.738311	1.253365	16.649854	10.899463	-16.124586	-21.092251	27.725954	6.514521	25.531926	19.332944	14.503931	5.234824	30.838985	22.926845	3.382697	-4.039944	47.979076	31.382244	-9.354844	-9.508652	51.480469	41.360443
-0.395000	-1.089067	-4.156866	93.821839	0.005592	-0.251675	0.017717	85.789678	1.433076	1.723777	15.152467	11.759785	-16.085777	-20.360954	29.571433	6.537292	24.304373	18.640354	15.954221	5.338600	29.908111	22.831845	4.563411	-3.936315	47.158517	31.287369	-6.767658	-9.313376	49.219701	39.903690
-0.385000	-1.089067	-4.156866	93.821839	0.009114	-0.249628	0.021165	85.180839	2.346836	2.182552	13.566072	12.437095	-15.994942	-19.605335	31.307835	6.617237	23.204998	17.947337	17.470215	5.458049	28.979145	22.699439	5.713788	-3.835515	46.416925	31.284921	-4.342355	-9.096622	47.252863	38.577797
-0.375000	-1.089067	-4.156866	93.821839	0.013033	-0.247555	0.024776	84.664326	3.424020	2.621459	11.928023	13.006210	-15.840154	-18.826476	32.835228	6.756973	22.315546	17.310101	18.986386	5.576956	28.106060	22.555668	6.843094	-3.746276	45.736551	31.336886	-2.161985	-8.886755	45.611730	37.399597
-0.365000	-1.089067	-4.156866	93.821839	0.017301	-0.245470	0.028621	84.265115	4.594725	3.034229	10.280469	13.559197	-15.627308	-18.041859	34.124838	6.944397	21.657017	16.755917	20.482192	5.676366	27.297384	22.405959	7.992192	-3.666728	45.058388	31.401362	-0.263515	-8.704036	44.257003	36.369986
-0.355000	-1.089067	-4.156866	93.821839	0.021871	-0.243405	0.032764	83.992167	5.794732	3.419831	8.670536	14.164503	-15.377823	-17.283520	35.209116	7.161448	21.201399	16.285619	21.970650	5.743989	26.532983	22.239312	9.198859	-3.589955	44.327961	31.457090	1.345574	-8.559622	43.133825	35.497557
-0.345000	-1.089067	-4.156866	93.821839	0.026709	-0.241412	0.037221	83.836226	6.977791	3.786631	7.143676	14.843567	-15.123152	-16.590475	36.153592	7.392412	20.897143	15.883956	23.469800	5.779385	25.794096	22.041882	10.468378	-3.511056	43.533031	31.515604	2.677997	-8.456703	42.209953	34.802247
-0.335000	-1.089067	-4.156866	93.821839	0.031791	-0.239553	0.041961	83.772999	8.117339	4.154816	5.732472	15.571568	-14.897230	-15.996797	37.024138	7.627672	20.693847	15.531724	24.976534	5.793250	25.085251	21.809764	11.764391	-3.431251	42.711312	31.613930	3.763118	-8.392887	41.480975	34.299623
-0.325000	-1.089067	-4.156866	93.821839	0.037104	-0.237883	0.046918	83.772495	9.201511	4.554203	4.447904	16.296343	-14.727999	-15.519654	37.861931	7.862837	20.556744	15.214984	26.458408	5.802328	24.435588	21.553555	13.022833	-3.357131	41.926546	31.791812	4.641759	-8.363166	40.951163	33.981978
-0.315000	-1.089067	-4.156866	93.821839	0.042635	-0.236434	0.052014	83.810919	10.227293	5.015929	3.279111	16.965088	-14.629833	-15.152979	38.674438	8.095866	20.469341	14.929191	27.866119	5.823067	23.883033	21.294429	14.180148	-3.296553	41.231264	32.067286	5.356164	-8.363095	40.612327	33.814125
-0.305000	-1.089067	-4.156866	93.821839	0.048369	-0.235214	0.057190	83.879842	11.196656	5.559901	2.202362	17.549828	-14.599529	-14.870486	39.443738	8.325018	20.427777	14.678166	29.156263	5.866850	23.454407	21.056434	15.200509	-3.254382	40.640737	32.426024	5.938150	-8.391901	40.438000	33.749462
